<svg class="navbar-logo__img" width="43" height="41" viewBox="0 0 220 220" xmlns="http://www.w3.org/2000/svg"><path d="M221.3 107.8c.1-2.1-.7-3.9-2-5.3L199.9 83l.2-44.7c-.1-.3-.2-.8-.3-1.2 0-.1 0-.3-.1-.4-.1-.2-.2-.5-.2-.7-.1-.3-.1-.5-.2-.8-.1-.1-.2-.3-.2-.4-.1-.3-.3-.5-.4-.8l-.2-.3c-.2-.3-.4-.5-.6-.7l-.3-.3c-.3-.2-.5-.5-.8-.7-.2-.1-.3-.2-.5-.3l-.3-.1c-.1-.1-.3-.2-.5-.3-.6-.3-1.4-.4-2.2-.5h-16.5c-1.8 0-3.5.7-4.8 2-1.3 1.3-2 3-2 4.8 0 3.7 3.1 6.8 6.8 6.8h9.3v41.1c0 .6 0 1.2.1 1.7.3 2.1 1.5 3.8 3.1 4.9l.8.6 14.9 14.9-16.6 16.6c-.8.7-1.4 1.6-1.8 2.5-.2.4-.2.7-.3 1.1l-.1.3c-.1.5-.1 1.2-.1 1.8v41.7h-9.3c-3.8 0-6.8 2.9-6.8 6.6 0 1.8.7 3.5 2 4.7 1.3 1.3 3 2 4.8 2l16.2-.1c.9 0 1.7-.2 2.5-.5l.9-.5c.1-.1.3-.1.4-.2.2-.2.5-.4.8-.7l.3-.3c.2-.2.4-.5.6-.8l.2-.2c.2-.3.3-.6.4-.8l.1-.3c.1-.2.1-.5.2-.7 0-.2.1-.4.2-.6.1-.2.1-.5.2-.7v.1c0-.5.2-.9.3-1.3l-.2-45.1 19.3-19.5c1.4-1.2 2.1-2.9 2.1-4.9zM146.8 5.5c-.8-.6-2-1.4-3.1-1.4h-.5L99-.1c-.1 0-.2 0-.3.1-.1 0-.2 0-.3.1l-.9.3c-.3.1-.5.1-.8.2-.1 0-.3.1-.4.2l-.8.4c-.3.1-.6.4-.8.6l-.3.1c-.2.1-.4.4-.7.7l-.2.2c-.2.3-.4.6-.5.8l-.1.3c-.1.3-.2.5-.3.8 0 .1-.1.3-.2.4v.2l-.1.4c0 .2-.1.4-.1.6L77.1 178.8c-.3 1.9.2 3.8 1.4 5.2l19.8 24c.1.1.1.3.2.4 1.3 1.5 3.1 2.4 5 2.4 1.5 0 3-.5 4.2-1.6l23.9-20.5c.2-.2.5-.5.8-.9l.1-.2c.8-1.1 1.2-2.4 1.3-3.7l11.6-133.7.1-.4c.1-.5.2-.8.2-1.1v-1.5l3.2-35.9c.4-2.2-.5-4.4-2.1-5.8zm-25.1 170.9l-30.9-2.7 10.6-122.3 30.9 2.7-10.6 122.3zm11.6-135.6l-30.9-2.7 2.2-24 30.9 2.7-2.2 24zM44.5 171.6h-9.3V130c0-.6 0-1.3-.1-1.8l-.1-.3c-.1-.3-.2-.7-.3-1.1-.4-.9-1-1.8-1.8-2.5l-16.6-16.6 14.9-14.9.8-.6c1.6-1 2.7-2.7 3.1-4.9.1-.5.1-1.1.1-1.8V44.4h9.3c3.8 0 6.8-3 6.8-6.8 0-1.8-.7-3.5-2-4.8s-3-2-4.8-2H28c-.8 0-1.6.2-2.2.5-.2.1-.4.2-.5.3H25c-.2.1-.3.2-.5.3-.3.2-.6.4-.8.7l-.3.3c-.2.2-.4.5-.6.7l-.2.3c-.1.2-.3.5-.4.8-.2.1-.2.3-.3.4-.1.2-.2.5-.2.8-.1.2-.1.5-.2.7 0 .1-.1.3-.1.4 0 .5-.1.9-.3 1.2l.2 44.7L2 102.5c-1.4 1.4-2.1 3.1-2 5.3 0 1.9.6 3.7 1.9 5l19.3 19.5-.1 45c.1.3.2.8.3 1.3v-.1c.1.2.1.5.2.7.1.2.1.4.2.6.1.2.1.5.2.7l.1.3c.1.3.3.6.4.8l.2.2c.2.3.4.6.6.8l.3.3c.3.3.6.5.8.7.1.1.3.2.4.2l.9.5c.8.3 1.7.5 2.5.5l16.2.1c1.8 0 3.6-.7 4.8-2 1.3-1.3 2-2.9 2-4.7.2-3.6-2.8-6.6-6.7-6.6z"/></svg>